<svg xmlns="http://www.w3.org/2000/svg" viewBox="0 0 29.77 29.77"><defs><style>.cls-1{fill:#000000;fill-rule:evenodd;}</style></defs><title>DeactivateAsset 67</title><g id="Layer_2" data-name="Layer 2"><g id="Layer_1-2" data-name="Layer 1"><path class="cls-1" d="M4.36,4.36a14.88,14.88,0,1,1,0,21.05,14.89,14.89,0,0,1,0-21ZM15.44,18.55h0l2.71,2.7a2.19,2.19,0,0,0,2.84.31l.3-.24a2.35,2.35,0,0,0,.44-.64,2.17,2.17,0,0,0-.12-2.12,29.42,29.42,0,0,0-2.14-2.22l-.91-.91L18,14.88l.54-.55h0l2.7-2.71a2.19,2.19,0,0,0,.31-2.84l-.24-.3A2.35,2.35,0,0,0,20.68,8a2.17,2.17,0,0,0-2.12.12,29.42,29.42,0,0,0-2.22,2.14l-.91.91-.55.54-.54-.54-.91-.91a29.42,29.42,0,0,0-2.22-2.14A2.17,2.17,0,0,0,9.09,8a2.35,2.35,0,0,0-.64.44l-.24.3a2.19,2.19,0,0,0,.31,2.84l2.7,2.71h0l.54.55-.55.55-.91.91a29.42,29.42,0,0,0-2.14,2.22A2.17,2.17,0,0,0,8,20.68a2.35,2.35,0,0,0,.44.64l.3.24a2.19,2.19,0,0,0,2.84-.31l2.71-2.7h0l.55-.55Z"/></g></g></svg>