<svg xmlns="http://www.w3.org/2000/svg" viewBox="0 0 37.95 37.94"><defs><style>.cls-1{fill:#324b62;fill-rule:evenodd;}</style></defs><title>LoadAsset 73</title><g id="Layer_2" data-name="Layer 2"><g id="Layer_1-2" data-name="Layer 1"><path class="cls-1" d="M0,18.59c0,1.06-.09,1.47.67,2.22a2,2,0,0,0,1.61.59h8.57a2.24,2.24,0,0,0,2.28-2.2v-.46a2.24,2.24,0,0,0-2.28-2.2H2.28A2.09,2.09,0,0,0,0,18.59ZM16.7,2.12v8.81a2.12,2.12,0,0,0,1.89,2.12h1a2,2,0,0,0,1.82-1.82V2a2,2,0,0,0-2-2h-.84A2.12,2.12,0,0,0,16.7,2.12ZM16.7,27v8.88a2.12,2.12,0,0,0,1.89,2h1a1.91,1.91,0,0,0,1.82-1.75V26.71a2,2,0,0,0-1.82-1.82c-1,0-1.54-.12-2.3.66A2.24,2.24,0,0,0,16.7,27ZM4.63,30.35a2,2,0,0,0,.82,1.92,2,2,0,0,0,3,.26c2-1.9,4.22-4.34,6.28-6.24a2.14,2.14,0,0,0,0-3.24,2,2,0,0,0-2-.82c-.91,0-1.81,1.17-2.33,1.69L5.33,29a1.88,1.88,0,0,0-.7,1.35Zm25.8,2.89h.38a2.71,2.71,0,0,0,2.28-2.51c0-1.23-1.64-2.5-2.68-3.55-.43-.43-.8-.69-1.08-1l-3.13-3.1c-1.74-1.77-4.28.33-4,2.14a2.6,2.6,0,0,0,1.05,1.61c.75.75,5.75,5.83,6.13,6.09a2.07,2.07,0,0,0,1,.35Zm-8-20a2.8,2.8,0,0,0,1.42,2.22c1.74,1,3.15-.91,4.21-2l4.06-4.06A3.24,3.24,0,0,0,33.22,7.8a2.59,2.59,0,0,0-2.33-2.94c-1.34,0-1.81.77-2.72,1.68L24,10.68c-.62.62-1.65,1.36-1.65,2.52ZM4.78,7.13c0,1.2,1.3,2.17,2.3,3.17l4.1,4.1a3.12,3.12,0,0,0,1.65,1.08c2,.28,3.81-2.2,2.29-3.89L8.78,5.26c-2-1.7-4,.49-4,1.87Zm20,11.61a2.22,2.22,0,0,1,2.2-2.2h8.49a2.29,2.29,0,0,1,2.43,2c0,.89.1,1.66-.7,2.34a2.45,2.45,0,0,1-1.5.55H27a2.17,2.17,0,0,1-2.2-2.2Z"/></g></g></svg>