<svg xmlns="http://www.w3.org/2000/svg" viewBox="0 0 169.35 33.93"><defs><style>.cls-1{fill-rule:evenodd;}</style></defs><title>6d logoAsset 11</title><g id="Layer_2" data-name="Layer 2"><g id="Layer_1-2" data-name="Layer 1"><path class="cls-1" d="M19.89,0a13.24,13.24,0,0,1,7.34,2.09A12.34,12.34,0,0,0,21.39.63,18,18,0,0,0,8.86,6.11,19,19,0,0,0,3.13,18.73,12,12,0,0,0,7.59,28.85a12.72,12.72,0,0,0,10,2.28A18.37,18.37,0,0,0,27.33,26a19.56,19.56,0,0,0,4.94-7.71c-2.41,8.74-10.73,15.61-19.2,15.61C4.16,33.93-1.52,26.34.36,17S11,0,19.89,0Zm0,7.44v19.4c-.26.09-.53.17-.79.24a10.68,10.68,0,0,1-7.87-.7,10.9,10.9,0,0,0,7.63,1.54,15.43,15.43,0,0,0,8.42-4.31A16.73,16.73,0,0,0,32.14,15a12.13,12.13,0,0,0-1.5-9.22,9.79,9.79,0,0,0-8.43-4.38,15.25,15.25,0,0,0-10.64,4.8,16.5,16.5,0,0,0-4.8,10.83v.12A15.25,15.25,0,0,1,11.27,8,14.56,14.56,0,0,1,21,3.61a8.81,8.81,0,0,1,7.46,3.45,10.06,10.06,0,0,1,1.75,7.55,14.88,14.88,0,0,1-3.64,7.71,15.5,15.5,0,0,1-5.95,4.26V7.44Z"/><path class="cls-1" d="M40.18,12.33a4.08,4.08,0,0,1,2.07-.52,4.41,4.41,0,0,1,1.4.22,4.46,4.46,0,0,1,1.38.73,4.17,4.17,0,0,1,1.1,1.4,4.63,4.63,0,0,1,.42,2.07,3.94,3.94,0,0,1-1.76,3.41,5.6,5.6,0,0,1-1.53.71,5,5,0,0,1-1.39.22A5.24,5.24,0,0,1,39.5,20a4,4,0,0,1-1.66-1.6,5.08,5.08,0,0,1-.59-2.51.71.71,0,0,1,0-.14v-.12a7.8,7.8,0,0,1,.42-2.39,14.88,14.88,0,0,1,1.14-2.59A23,23,0,0,1,40.51,8.1a24.06,24.06,0,0,1,2.16-2.46l.1-.1,1,.86-.1.12q-.59.74-1.11,1.5c-.39.57-.77,1.15-1.13,1.74a12.12,12.12,0,0,0-1.29,2.57Zm13.9-6.17H55.6v.15c.07,1,.12,1.9.16,2.85,0,1.15.09,2.31.11,3.47s0,2.35,0,3.53,0,2.48,0,3.72a5.11,5.11,0,0,1-.12,1.17c-.08.24-.23.45-.5.45a.64.64,0,0,1-.53-.41,1,1,0,0,0-.52-.52,7,7,0,0,0-1.11-.29c-2.08-.44-5.25-1.43-5.25-4.05a3,3,0,0,1,.63-1.91,4.7,4.7,0,0,1,1.46-1.2,13.5,13.5,0,0,1,1.9-.77A6.31,6.31,0,0,0,53,11.88a.92.92,0,0,0,.43-.42,3.93,3.93,0,0,0,.21-.9c.19-1.41.31-2.83.42-4.25V6.16Zm15,4.21-.53,10.07h-1.3l-.69-10.07a7.62,7.62,0,0,0-.11-1,1.09,1.09,0,0,0-.35-.55,2.14,2.14,0,0,0-.93-.37l-2.27-.4a1.23,1.23,0,0,1-.56-.21.59.59,0,0,1-.19-.47c0-.51.66-.58,1-.59,1.55-.06,3.09-.09,4.64-.09s3.09,0,4.63.09c.38,0,1,.08,1,.59a.59.59,0,0,1-.19.47,1.23,1.23,0,0,1-.56.21l-2.26.4c-.35.06-.93.2-1.11.55a3.34,3.34,0,0,0-.28,1.33Zm4.46,5.12h6.21v-.16a4.39,4.39,0,0,0-.15-1.08A3.46,3.46,0,0,0,79,13.1a3.18,3.18,0,0,0-1.21-.91,4.86,4.86,0,0,0-2-.35,4.63,4.63,0,0,0-2.25.56A4,4,0,0,0,72,14a4.42,4.42,0,0,0-.56,2.22,4.18,4.18,0,0,0,.67,2.36,4.25,4.25,0,0,0,.78.86,4.38,4.38,0,0,0,1,.63,5.78,5.78,0,0,0,2.39.49c.44,0,1.76,0,1.76-.67a.44.44,0,0,0-.26-.43,2.28,2.28,0,0,0-.68-.07,4.07,4.07,0,0,1-2.67-.83,3,3,0,0,1-1-2.44c0-.19,0-.39,0-.58Zm14.19-3.15v2.24l-.27-.23A3.85,3.85,0,0,0,85,13.23a2.13,2.13,0,0,0-1.67.72,2.61,2.61,0,0,0-.65,1.82,3.53,3.53,0,0,0,.58,2.1A3.16,3.16,0,0,0,84.7,19a4.89,4.89,0,0,0,1.73.34l.33,0,.36,0c.25,0,.46.12.46.4s-.34.51-.6.61a3.83,3.83,0,0,1-1.34.2,5.18,5.18,0,0,1-2.83-.72A4.36,4.36,0,0,1,81.16,18a5,5,0,0,1-.53-2.21,3.65,3.65,0,0,1,.34-1.6,3.59,3.59,0,0,1,.93-1.25,4.05,4.05,0,0,1,1.4-.79A5.72,5.72,0,0,1,85,11.88a8.86,8.86,0,0,1,2.61.43l.12,0Zm5.51.87a1.11,1.11,0,0,0-.65.2,2.05,2.05,0,0,0-.58.86,10.19,10.19,0,0,0-.62,1.94c-.28,1.17-.49,2.38-.67,3.57-.06.35-.23.66-.62.66a.49.49,0,0,1-.49-.38,3.42,3.42,0,0,1-.13-1.1c0-1.25-.06-2.49-.06-3.74,0-1.57,0-3.15.11-4.72.06-1.38.18-2.75.34-4.12l0-.14h1.48v.15c.06,1.35.1,2.75.25,4.09a4.81,4.81,0,0,0,.3,1.47.6.6,0,0,0,.56.26,7.65,7.65,0,0,0,1-.1,7.89,7.89,0,0,1,1.09-.1,1.94,1.94,0,0,1,2,1.39,15.74,15.74,0,0,1,.31,4c0,1,0,2-.09,2.94v.15H95.26v-.16c0-.69-.06-1.37-.11-2.06a17.62,17.62,0,0,0-.22-1.76A8.1,8.1,0,0,0,94.19,14c-.2-.36-.51-.78-1-.78Zm6.07,1.84a30.37,30.37,0,0,1,.17-3.57c0-.29.2-.54.52-.54s.43.28.54.48A1.88,1.88,0,0,0,101,12a1.78,1.78,0,0,0,1,.21,8.39,8.39,0,0,0,1.23-.1,8.64,8.64,0,0,1,1.24-.1,1.91,1.91,0,0,1,2,1.39,6.12,6.12,0,0,1,.25,1.53c.06.81.08,1.62.08,2.43,0,1,0,2-.11,2.93v.15h-1.44v-.16c0-1.05-.1-2.1-.23-3.15a11.94,11.94,0,0,0-.67-2.82c-.18-.48-.51-1.1-1.1-1.1a1.24,1.24,0,0,0-1.06.71,7,7,0,0,0-.71,1.93c-.26,1.19-.46,2.39-.66,3.59a2.46,2.46,0,0,1-.18.72.47.47,0,0,1-.44.28.49.49,0,0,1-.46-.27,2.05,2.05,0,0,1-.17-.74c-.06-.66-.1-1.33-.13-2s-.06-1.6-.06-2.39Zm9.23,1a4.35,4.35,0,0,1,.56-2.23,3.67,3.67,0,0,1,1.6-1.47,5.54,5.54,0,0,1,2.44-.51,6.25,6.25,0,0,1,1.92.29,4.34,4.34,0,0,1,1.47.82,3.67,3.67,0,0,1,.91,1.33,4.7,4.7,0,0,1,.33,1.73,4.83,4.83,0,0,1-.56,2.33A4,4,0,0,1,115.58,20a5.21,5.21,0,0,1-2.45.56A5.11,5.11,0,0,1,110.7,20a4,4,0,0,1-1.61-1.58,4.61,4.61,0,0,1-.56-2.3Zm13.34,1.7a1.87,1.87,0,0,0,.4.64,2.78,2.78,0,0,0,.58.42,4.07,4.07,0,0,1,.55.37.72.72,0,0,1,.21.52.69.69,0,0,1-.33.58,1.51,1.51,0,0,1-.75.18,3.09,3.09,0,0,1-1-.24,3.15,3.15,0,0,1-1.14-.8,3.07,3.07,0,0,1-.73-1.54,17.47,17.47,0,0,1-.2-3.07c0-.75,0-1.5,0-2.25,0-.91.08-1.83.14-2.75.07-1.15.16-2.3.26-3.45l0-.14h1.56V6.4c0,1.91-.09,3.82-.09,5.72,0,1.2,0,2.43.12,3.62a8.1,8.1,0,0,0,.38,2Zm1.93-1.7a4.25,4.25,0,0,1,.56-2.23,3.67,3.67,0,0,1,1.6-1.47,5.53,5.53,0,0,1,2.43-.51,6.21,6.21,0,0,1,1.92.29,4.49,4.49,0,0,1,1.48.82,3.71,3.71,0,0,1,.91,1.33A4.69,4.69,0,0,1,133,16a4.82,4.82,0,0,1-.55,2.33A4,4,0,0,1,130.85,20,5.6,5.6,0,0,1,126,20a4,4,0,0,1-1.62-1.58,4.71,4.71,0,0,1-.55-2.3Zm18.3,3.87a8.23,8.23,0,0,1-.36,2.41,4.23,4.23,0,0,1-1.17,1.77,6.21,6.21,0,0,1-4,1.61c-.42,0-1-.11-1-.64,0-.37.45-.56.74-.66,1.35-.44,3.53-1.34,3.53-3.07a1,1,0,0,0-.24-.66,2.83,2.83,0,0,0-1-.56c-.49-.18-1-.38-1.46-.59A11.86,11.86,0,0,1,136,19a4.12,4.12,0,0,1-1.42-1.27,3.06,3.06,0,0,1-.43-1.65,2.81,2.81,0,0,1,.67-1.93A4.76,4.76,0,0,1,136.41,13a12.36,12.36,0,0,1,1.94-.67l1.89-.47a1.39,1.39,0,0,0,.76-.53,1.42,1.42,0,0,1,.25-.3.5.5,0,0,1,.33-.1c.47,0,.54.61.56,1,0,.93,0,1.87,0,2.8,0,1.76,0,3.53-.07,5.3Zm2.49-12.12a1.83,1.83,0,0,1,.31-1.06,1,1,0,0,1,.85-.44,1,1,0,0,1,.88.44,1.8,1.8,0,0,1,.3,1.06,2.87,2.87,0,0,1-.34,1.55,1.06,1.06,0,0,1-.84.51,1,1,0,0,1-.81-.52,2.74,2.74,0,0,1-.35-1.54Zm2.54,5.6-.47,7h-1.18v-.15c-.11-1.95-.26-3.9-.42-5.85a1.29,1.29,0,0,0-.18-.67,2.9,2.9,0,0,0-.76-.44,1.88,1.88,0,0,1-.45-.22.52.52,0,0,1-.19-.44c0-.34.35-.49.62-.57a4.51,4.51,0,0,1,1.32-.16,2.26,2.26,0,0,1,1.29.32,1.4,1.4,0,0,1,.43,1.16ZM151,15.49a5.63,5.63,0,0,0,0,.58,3,3,0,0,0,1,2.44,4,4,0,0,0,2.66.83,2.35,2.35,0,0,1,.69.07.45.45,0,0,1,.25.43c0,.68-1.32.67-1.76.67A5.7,5.7,0,0,1,151.4,20a4.19,4.19,0,0,1-1-.63,4.25,4.25,0,0,1-.78-.86,4.11,4.11,0,0,1-.67-2.36,4.42,4.42,0,0,1,.56-2.22,3.9,3.9,0,0,1,1.57-1.55,4.66,4.66,0,0,1,2.25-.56,4.83,4.83,0,0,1,2,.35,3,3,0,0,1,1.21.91,3.49,3.49,0,0,1,.59,1.15,4.93,4.93,0,0,1,.15,1.08v.16Zm6.94,3.42a.45.45,0,0,1,.45-.33.65.65,0,0,1,.21,0,2.53,2.53,0,0,1,.55.18c.31.1.61.2.93.27a4.71,4.71,0,0,0,1,.11,2.23,2.23,0,0,0,1.34-.35,1,1,0,0,0,.46-.81,1.07,1.07,0,0,0-.48-1,7.54,7.54,0,0,0-1.68-.63,5.56,5.56,0,0,1-1.77-.75,1.62,1.62,0,0,1-.66-1.45,1.84,1.84,0,0,1,.47-1.22,3,3,0,0,1,1.28-.83,5.9,5.9,0,0,1,1.82-.27,8.05,8.05,0,0,1,1.76.2c.4.1,1,.3,1,.82,0,.32-.31.42-.6.42a3.47,3.47,0,0,1-.63-.11,4.87,4.87,0,0,0-1-.09,2.79,2.79,0,0,0-1.3.3.85.85,0,0,0-.53.74.93.93,0,0,0,.39.84,6.45,6.45,0,0,0,1.44.6c.3.07.62.18.92.27a5.44,5.44,0,0,1,1,.42,2.21,2.21,0,0,1,.7.66,2,2,0,0,1-.21,2.36,3.1,3.1,0,0,1-1.35.86,5.68,5.68,0,0,1-1.92.31,8.25,8.25,0,0,1-1.64-.19,4.76,4.76,0,0,1-1.46-.54.89.89,0,0,1-.47-.66.52.52,0,0,1,0-.18Zm-116-5.74a2.3,2.3,0,0,0-1.27.37,2.6,2.6,0,0,0-.9,1.07,3.69,3.69,0,0,0-.38,1.6,3.88,3.88,0,0,0,.3,1.54,2.55,2.55,0,0,0,.87,1.08,2.18,2.18,0,0,0,1.29.39,2.23,2.23,0,0,0,1.81-.85,3.31,3.31,0,0,0,.71-2.16A4,4,0,0,0,44,14.58a2.57,2.57,0,0,0-.87-1.06,2.2,2.2,0,0,0-1.23-.35Zm12.31,6.27V14.16a1.36,1.36,0,0,0-.2-.81,1,1,0,0,0-.71-.23,2.88,2.88,0,0,0-1.51.43,3.22,3.22,0,0,0-1.13,1.13,2.7,2.7,0,0,0-.42,1.41c0,2.17,2.15,3,4,3.35Zm19.94-5a2.75,2.75,0,0,1,.64-1A1.63,1.63,0,0,1,76,13a1.71,1.71,0,0,1,1,.3.89.89,0,0,1,.4.73.38.38,0,0,1-.16.32,1,1,0,0,1-.52.14Zm36.51,1.6A4.45,4.45,0,0,0,111,17.8a2.14,2.14,0,0,0,.85,1.07,2.18,2.18,0,0,0,1.29.37,2.25,2.25,0,0,0,2.17-1.44,4.64,4.64,0,0,0,.3-1.73,3.39,3.39,0,0,0-.65-2.23,2.33,2.33,0,0,0-1.82-.72,2.26,2.26,0,0,0-1.79.72,3.34,3.34,0,0,0-.66,2.23Zm15.27,0a4.45,4.45,0,0,0,.31,1.73,2.18,2.18,0,0,0,.84,1.07,2.21,2.21,0,0,0,1.29.37,2.35,2.35,0,0,0,1.32-.37,2.32,2.32,0,0,0,.86-1.07,4.64,4.64,0,0,0,.3-1.73,3.34,3.34,0,0,0-.66-2.23,2.32,2.32,0,0,0-1.82-.72,2.24,2.24,0,0,0-1.78.72,3.34,3.34,0,0,0-.66,2.23Zm14.61,3.49V15.21A7.84,7.84,0,0,0,140.5,14a1,1,0,0,0-.28-.59,1,1,0,0,0-.72-.22,2.87,2.87,0,0,0-3,3.06,2.5,2.5,0,0,0,1.07,2,8.13,8.13,0,0,0,3,1.32Zm11.07-5.09h2.57a1,1,0,0,0,.53-.14.37.37,0,0,0,.15-.32.9.9,0,0,0-.39-.73,1.73,1.73,0,0,0-1-.3,1.6,1.6,0,0,0-1.18.46A2.66,2.66,0,0,0,151.63,14.47Z"/><path class="cls-1" d="M163.47,10.11V7h-1.1V6.41h2.94V7h-1.09v3.08Zm2.31,0V6.41h1.12l.67,2.52.65-2.52h1.13v3.7h-.7V7.2l-.73,2.91h-.72l-.72-2.91v2.91Z"/><path class="cls-1" d="M37.4,29.08l.81-.08a1.85,1.85,0,0,0,.27.81,1.55,1.55,0,0,0,.65.5,2.43,2.43,0,0,0,1,.2,2.33,2.33,0,0,0,.87-.15,1.21,1.21,0,0,0,.56-.4,1,1,0,0,0,.18-.56.88.88,0,0,0-.17-.53,1.34,1.34,0,0,0-.59-.38c-.17-.07-.56-.17-1.15-.32a5.35,5.35,0,0,1-1.25-.4,1.73,1.73,0,0,1-.69-.61,1.41,1.41,0,0,1-.23-.8,1.61,1.61,0,0,1,.28-.92,1.66,1.66,0,0,1,.81-.65,3,3,0,0,1,1.19-.22,3.16,3.16,0,0,1,1.27.23,1.81,1.81,0,0,1,.85.68,2,2,0,0,1,.32,1l-.83.07a1.3,1.3,0,0,0-.45-.93A1.73,1.73,0,0,0,40,25.33a1.81,1.81,0,0,0-1.13.28.85.85,0,0,0-.36.69.79.79,0,0,0,.25.58,3.74,3.74,0,0,0,1.3.46,8.5,8.5,0,0,1,1.43.41,1.91,1.91,0,0,1,.84.66,1.61,1.61,0,0,1,.27.92,1.73,1.73,0,0,1-.3,1,1.93,1.93,0,0,1-.85.71,2.94,2.94,0,0,1-1.25.26A3.75,3.75,0,0,1,38.69,31a2.07,2.07,0,0,1-.93-.77,2.21,2.21,0,0,1-.36-1.16Zm6.22,2.08v-4.7h.72v.66a1.64,1.64,0,0,1,.59-.55,1.63,1.63,0,0,1,.83-.21,1.47,1.47,0,0,1,.85.22,1.09,1.09,0,0,1,.47.6,1.7,1.7,0,0,1,1.46-.82,1.43,1.43,0,0,1,1.08.39A1.63,1.63,0,0,1,50,27.94v3.22h-.8v-3a2.22,2.22,0,0,0-.08-.69.6.6,0,0,0-.28-.33.86.86,0,0,0-.48-.13,1.11,1.11,0,0,0-.82.33,1.44,1.44,0,0,0-.33,1.05v2.73h-.8V28.11a1.37,1.37,0,0,0-.19-.8.75.75,0,0,0-.64-.26,1.23,1.23,0,0,0-.62.17,1,1,0,0,0-.41.52,2.82,2.82,0,0,0-.13,1v2.44Zm10.61-.59a2.87,2.87,0,0,1-.85.53,2.33,2.33,0,0,1-.88.16,1.72,1.72,0,0,1-1.19-.38,1.23,1.23,0,0,1-.42-1,1.34,1.34,0,0,1,.16-.63,1.4,1.4,0,0,1,.41-.46,2,2,0,0,1,.58-.26,6.05,6.05,0,0,1,.7-.12,7.43,7.43,0,0,0,1.43-.27V28a.87.87,0,0,0-.23-.68A1.31,1.31,0,0,0,53,27a1.44,1.44,0,0,0-.84.2,1.15,1.15,0,0,0-.39.7L51,27.81a1.89,1.89,0,0,1,.35-.81,1.48,1.48,0,0,1,.71-.47,3.1,3.1,0,0,1,1.06-.17,3,3,0,0,1,1,.14,1.32,1.32,0,0,1,.56.36,1.23,1.23,0,0,1,.25.54,5.41,5.41,0,0,1,0,.73v1.06a10.14,10.14,0,0,0,.05,1.4,1.67,1.67,0,0,0,.19.57h-.83a2,2,0,0,1-.16-.59Zm-.06-1.77a5.58,5.58,0,0,1-1.3.3,3.19,3.19,0,0,0-.7.16.67.67,0,0,0-.31.26.63.63,0,0,0-.12.37.66.66,0,0,0,.25.53,1,1,0,0,0,.7.21,1.58,1.58,0,0,0,.82-.2,1.2,1.2,0,0,0,.53-.54,2,2,0,0,0,.13-.8V28.8Zm2,2.36v-4.7h.72v.72a2.06,2.06,0,0,1,.5-.66.88.88,0,0,1,.51-.16,1.53,1.53,0,0,1,.82.25l-.28.74a1.17,1.17,0,0,0-.58-.17.81.81,0,0,0-.47.16.89.89,0,0,0-.29.43,3.12,3.12,0,0,0-.13.93v2.46Zm4.75-.71.11.7a2.7,2.7,0,0,1-.6.07,1.26,1.26,0,0,1-.67-.14.72.72,0,0,1-.33-.36,2.69,2.69,0,0,1-.1-.94V27.07h-.59v-.61h.59V25.3l.8-.48v1.64h.79v.61h-.79v2.76a1.41,1.41,0,0,0,0,.44.37.37,0,0,0,.13.15.55.55,0,0,0,.28.06l.34,0Zm3.55.71V24.68h.86v6.48Zm5.3,0v-.6a1.47,1.47,0,0,1-1.31.7,1.89,1.89,0,0,1-1-.31,2,2,0,0,1-.73-.86,3,3,0,0,1-.26-1.28,3.46,3.46,0,0,1,.23-1.27,2,2,0,0,1,.71-.88,1.89,1.89,0,0,1,1-.3,1.55,1.55,0,0,1,.76.18,1.64,1.64,0,0,1,.54.47V24.68h.79v6.48Zm-2.51-2.35a2,2,0,0,0,.38,1.35,1.12,1.12,0,0,0,1.78,0,1.92,1.92,0,0,0,.37-1.3,2.18,2.18,0,0,0-.37-1.41,1.16,1.16,0,0,0-.92-.45,1.11,1.11,0,0,0-.89.43,2.11,2.11,0,0,0-.35,1.36Zm7.72.83.82.11a2,2,0,0,1-.72,1.11,2.18,2.18,0,0,1-1.34.4,2.12,2.12,0,0,1-1.63-.64,2.46,2.46,0,0,1-.6-1.77A2.59,2.59,0,0,1,72.14,27a2.08,2.08,0,0,1,1.58-.65,2,2,0,0,1,1.53.64,2.54,2.54,0,0,1,.6,1.8,1.79,1.79,0,0,1,0,.21H72.35a1.79,1.79,0,0,0,.43,1.18,1.29,1.29,0,0,0,1,.42,1.2,1.2,0,0,0,.75-.24,1.49,1.49,0,0,0,.49-.73Zm-2.61-1.28H75a1.7,1.7,0,0,0-.3-.89,1.23,1.23,0,0,0-1-.46,1.25,1.25,0,0,0-.92.37,1.5,1.5,0,0,0-.41,1Zm7.51,2.21a2.91,2.91,0,0,1-.86.53,2.3,2.3,0,0,1-.88.16A1.73,1.73,0,0,1,77,30.88a1.25,1.25,0,0,1-.41-1,1.33,1.33,0,0,1,.15-.63,1.43,1.43,0,0,1,.42-.46,2.12,2.12,0,0,1,.57-.26,6.31,6.31,0,0,1,.71-.12,7.29,7.29,0,0,0,1.42-.27V28a.87.87,0,0,0-.22-.68A1.35,1.35,0,0,0,78.7,27a1.41,1.41,0,0,0-.83.2,1.2,1.2,0,0,0-.4.7l-.78-.11A1.89,1.89,0,0,1,77,27a1.53,1.53,0,0,1,.71-.47,3.16,3.16,0,0,1,1.07-.17,3,3,0,0,1,1,.14,1.28,1.28,0,0,1,.55.36,1.23,1.23,0,0,1,.25.54,4.11,4.11,0,0,1,0,.73v1.06a12.19,12.19,0,0,0,0,1.4,1.91,1.91,0,0,0,.19.57h-.83a1.76,1.76,0,0,1-.15-.59Zm-.07-1.77a5.58,5.58,0,0,1-1.3.3,3.19,3.19,0,0,0-.7.16.72.72,0,0,0-.31.26.7.7,0,0,0-.11.37.68.68,0,0,0,.24.53,1.06,1.06,0,0,0,.71.21,1.57,1.57,0,0,0,.81-.2,1.2,1.2,0,0,0,.53-.54,1.87,1.87,0,0,0,.13-.8V28.8Zm1.72.95.78-.12a1.14,1.14,0,0,0,.37.72,1.31,1.31,0,0,0,.85.26,1.25,1.25,0,0,0,.82-.23.68.68,0,0,0,.26-.52.51.51,0,0,0-.23-.43,3.93,3.93,0,0,0-.82-.27,6.76,6.76,0,0,1-1.21-.38,1.06,1.06,0,0,1-.51-.44,1.19,1.19,0,0,1,0-1.21,1.1,1.1,0,0,1,.39-.44,1.55,1.55,0,0,1,.5-.24,2.56,2.56,0,0,1,.69-.09,2.63,2.63,0,0,1,1,.16A1.31,1.31,0,0,1,85,27a1.62,1.62,0,0,1,.28.73l-.78.11a.87.87,0,0,0-.31-.57,1.07,1.07,0,0,0-.71-.21,1.28,1.28,0,0,0-.78.18.52.52,0,0,0-.24.43.44.44,0,0,0,.1.28.72.72,0,0,0,.3.21l.7.2a8.55,8.55,0,0,1,1.18.37,1.21,1.21,0,0,1,.53.41,1.25,1.25,0,0,1,.19.69,1.34,1.34,0,0,1-.23.74,1.53,1.53,0,0,1-.67.55,2.66,2.66,0,0,1-1,.19,2.23,2.23,0,0,1-1.39-.38,1.77,1.77,0,0,1-.61-1.13Zm5.07,1.41v-.91h.9v.91Zm4.9,0V24.68h2.23a5.64,5.64,0,0,1,1.16.09,2.22,2.22,0,0,1,1,.46,2.66,2.66,0,0,1,.76,1.11,4.32,4.32,0,0,1,.26,1.54,4.73,4.73,0,0,1-.17,1.31,3.17,3.17,0,0,1-.45.94,2.2,2.2,0,0,1-.59.59,2.59,2.59,0,0,1-.77.33,4.61,4.61,0,0,1-1,.11Zm.86-.76h1.38a3.39,3.39,0,0,0,1-.12,1.44,1.44,0,0,0,.58-.34,2,2,0,0,0,.47-.82A4.1,4.1,0,0,0,96,27.87a3.08,3.08,0,0,0-.33-1.57,1.66,1.66,0,0,0-.81-.73,3.33,3.33,0,0,0-1.11-.13H92.38v5Zm8.78-.76.83.11a2,2,0,0,1-.72,1.11,2.2,2.2,0,0,1-1.34.4,2.11,2.11,0,0,1-1.63-.64,2.47,2.47,0,0,1-.61-1.77A2.63,2.63,0,0,1,98.3,27a2.1,2.1,0,0,1,1.58-.65,2,2,0,0,1,1.54.64,2.58,2.58,0,0,1,.59,1.8V29h-3.5A1.74,1.74,0,0,0,99,30.19a1.29,1.29,0,0,0,1,.42,1.15,1.15,0,0,0,.74-.24,1.49,1.49,0,0,0,.49-.73Zm-2.61-1.28h2.62a1.54,1.54,0,0,0-.3-.89,1.3,1.3,0,0,0-1.9-.09,1.46,1.46,0,0,0-.42,1Zm4.42,2.8V24.68h.8v6.48Zm2-5.58v-.9h.8v.9Zm0,5.58v-4.7h.8v4.7Zm3.3,0-1.77-4.7h.85l1,2.81c.11.31.21.62.3.95.08-.25.17-.55.3-.89l1-2.87h.81l-1.77,4.7Zm6.45-1.52.82.11a2,2,0,0,1-.72,1.11,2.2,2.2,0,0,1-1.34.4,2.11,2.11,0,0,1-1.63-.64,2.46,2.46,0,0,1-.6-1.77,2.59,2.59,0,0,1,.61-1.84,2.07,2.07,0,0,1,1.58-.65A2,2,0,0,1,115,27a2.54,2.54,0,0,1,.6,1.8c0,.05,0,.12,0,.21h-3.5a1.79,1.79,0,0,0,.44,1.18,1.29,1.29,0,0,0,1,.42,1.2,1.2,0,0,0,.75-.24,1.64,1.64,0,0,0,.49-.73Zm-2.61-1.28h2.61a1.54,1.54,0,0,0-.3-.89,1.23,1.23,0,0,0-1-.46,1.25,1.25,0,0,0-.92.37,1.45,1.45,0,0,0-.41,1Zm4.43,2.8v-4.7h.71v.72a1.92,1.92,0,0,1,.51-.66.84.84,0,0,1,.51-.16,1.56,1.56,0,0,1,.82.25l-.28.74a1.2,1.2,0,0,0-.58-.17.78.78,0,0,0-.47.16.77.77,0,0,0-.29.43,3.12,3.12,0,0,0-.14.93v2.46Zm6.22-1.52.83.11a2,2,0,0,1-.72,1.11,2.2,2.2,0,0,1-1.34.4,2.11,2.11,0,0,1-1.63-.64,2.46,2.46,0,0,1-.6-1.77,2.59,2.59,0,0,1,.61-1.84,2.07,2.07,0,0,1,1.58-.65,2,2,0,0,1,1.53.64,2.54,2.54,0,0,1,.6,1.8c0,.05,0,.12,0,.21h-3.5a1.79,1.79,0,0,0,.44,1.18,1.29,1.29,0,0,0,1,.42,1.15,1.15,0,0,0,.74-.24,1.49,1.49,0,0,0,.49-.73Zm-2.6-1.28h2.61a1.54,1.54,0,0,0-.3-.89,1.3,1.3,0,0,0-1.9-.09,1.4,1.4,0,0,0-.41,1Zm7.47,2.8v-.6a1.48,1.48,0,0,1-1.31.7,1.92,1.92,0,0,1-1-.31,2.2,2.2,0,0,1-.73-.86,3,3,0,0,1-.25-1.28,3.26,3.26,0,0,1,.23-1.27,1.93,1.93,0,0,1,.7-.88,1.89,1.89,0,0,1,1-.3,1.54,1.54,0,0,1,.75.18,1.64,1.64,0,0,1,.54.47V24.68h.8v6.48Zm-2.52-2.35a2.07,2.07,0,0,0,.38,1.35,1.16,1.16,0,0,0,.9.45,1.14,1.14,0,0,0,.89-.43,2,2,0,0,0,.37-1.3,2.18,2.18,0,0,0-.38-1.41,1.13,1.13,0,0,0-.91-.45,1.1,1.1,0,0,0-.89.43,2.11,2.11,0,0,0-.36,1.36Zm4.75,2.35v-.91h.9v.91Z"/></g></g></svg>