<svg xmlns="http://www.w3.org/2000/svg" viewBox="0 0 40.51 40.51"><defs><style>.cls-1{fill:#324b62;fill-rule:evenodd;}</style></defs><title>close arrowAsset 55</title><g id="Layer_2" data-name="Layer 2"><g id="Layer_1-2" data-name="Layer 1"><path class="cls-1" d="M40.44,21.92A20.25,20.25,0,1,1,21.92.07,20.25,20.25,0,0,1,40.44,21.92Zm-16.9-9.85c-.55-.45-1-.24-1,.47v4.35H10.32A1.29,1.29,0,0,0,9,18.17v4.08a1.29,1.29,0,0,0,1.28,1.28H22.54V28c0,.7.45.91,1,.47l9-7.38a1,1,0,0,0,0-1.63l-9-7.37ZM33.28,12l-3.84,3.29L26,12.46l4.43-3.79a15.29,15.29,0,0,0-8.94-3.81,15.45,15.45,0,0,0-14.3,23.7l4.38-3.75h6.65l-8.22,7A15.45,15.45,0,0,0,33.28,12Z"/></g></g></svg>