<svg xmlns="http://www.w3.org/2000/svg" viewBox="0 0 48 48.25"><defs><style>.cls-1{fill-rule:evenodd;}</style></defs><title>MaximizeAsset 7</title><g id="Layer_2" data-name="Layer 2"><g id="Layer_1-2" data-name="Layer 1"><path class="cls-1" d="M47.94,26.35V43a5.24,5.24,0,0,1-5.24,5.23H5.23A5.24,5.24,0,0,1,0,43V5.59A5.24,5.24,0,0,1,5.23.36H22a5.79,5.79,0,0,0-1.63,3.49H5.23A1.73,1.73,0,0,0,3.5,5.59V43a1.73,1.73,0,0,0,1.73,1.74H42.7A1.74,1.74,0,0,0,44.44,43V28a5.83,5.83,0,0,0,3.5-1.63ZM27.62,5.24H39.05l-18.5,18.5a2.62,2.62,0,0,0,3.71,3.71L42.76,9V20.38A2.62,2.62,0,0,0,45.38,23,2.63,2.63,0,0,0,48,20.38V2.62A2.62,2.62,0,0,0,45.38,0H27.62a2.62,2.62,0,0,0,0,5.24Z"/></g></g></svg>