<svg xmlns="http://www.w3.org/2000/svg" viewBox="0 0 48 48.01"><defs><style>.cls-1{fill-rule:evenodd;}</style></defs><title>MinimizeAsset 6</title><g id="Layer_2" data-name="Layer 2"><g id="Layer_1-2" data-name="Layer 1"><path class="cls-1" d="M48,26.08v16.7A5.24,5.24,0,0,1,42.76,48H5.24A5.24,5.24,0,0,1,0,42.78V5.29A5.24,5.24,0,0,1,5.24.06H22a5.79,5.79,0,0,0-1.63,3.5H5.24A1.74,1.74,0,0,0,3.5,5.29V42.78a1.74,1.74,0,0,0,1.74,1.73H42.76a1.74,1.74,0,0,0,1.74-1.73V27.71A5.77,5.77,0,0,0,48,26.08ZM39.91,23H28.47L47,4.48A2.62,2.62,0,1,0,43.28.77L24.76,19.29V7.85A2.62,2.62,0,0,0,20.28,6a2.61,2.61,0,0,0-.77,1.86V25.63a2.62,2.62,0,0,0,2.62,2.62H39.91a2.63,2.63,0,1,0,0-5.25Z"/></g></g></svg>