<svg xmlns="http://www.w3.org/2000/svg" viewBox="0 0 47.22 47.96"><defs><style>.cls-1{fill-rule:evenodd;}</style></defs><title>Open-arrowAsset 9</title><g id="Layer_2" data-name="Layer 2"><g id="Layer_1-2" data-name="Layer 1"><path class="cls-1" d="M32.4,14.67l7,7H16.67a2.28,2.28,0,0,0,0,4.56H39.43l-7,7A2.28,2.28,0,0,0,34,37.18a2.23,2.23,0,0,0,1.61-.67L46.55,25.59a2.29,2.29,0,0,0,0-3.23L35.62,11.44a2.28,2.28,0,0,0-3.22,3.23Z"/><path class="cls-1" d="M38.4,37.13v5.59h0v.13h0V43h0v.13h0v.13h0v.14h0l0,.13h0l0,.13h0l0,.12h0l0,.13h0l0,.13h0l0,.12,0,.12h0l0,.13,0,.12h0l0,.12,0,.12h0l-.05.11h0l-.06.12h0l-.06.11h0l0,.11-.07.11h0l-.06.11h0l-.07.11-.07.1-.07.11h0l-.07.1h0l-.08.1h0l-.08.1h0l-.08.09-.08.1-.09.09-.09.09-.09.09h0l-.09.08h0l-.09.09-.1.08h0l-.1.08h0l-.1.07-.1.08-.1.07h0l-.11.07h0l-.11.07h0l-.1.06h0l-.11.06h0l-.12.06h0l-.11.06h0l-.12.05h0l-.11,0h0l-.12.05h0l-.12,0h0l-.12,0h0l-.12,0h0l-.13,0h0l-.12,0h0l-.13,0h0l-.12,0h0l-.12,0h0l-.13,0h-.13l-.13,0H5.24A5.25,5.25,0,0,1,0,42.72V5.24H0V5.1H0V5H0V4.83H0V4.7H0V4.57H0l0-.13h0l0-.13h0l0-.13h0l0-.13h0l0-.12h0l0-.13,0-.12h0l0-.12,0-.12h0l0-.12,0-.12h0l.05-.12h0L.52,3h0l0-.12h0l.06-.11L.7,2.63h0l.06-.11h0l.07-.1L.9,2.31,1,2.21H1L1,2.11H1L1.12,2h0l.08-.1h0l.08-.1.08-.09.09-.09.09-.09.09-.09h0l.09-.09h0l.09-.08.1-.08h0L2,1.12H2L2.11,1,2.21,1,2.31.9h0L2.42.83h0l.1-.07h0L2.63.69h0L2.74.63h0L2.86.57h0L3,.52H3L3.08.46h0L3.2.41h0l.12,0h0l.12,0h0l.12,0h0l.12,0h0L3.8.2h0l.12,0h0l.13,0h0l.12,0h0l.13,0h0l.13,0h0l.13,0H33.16A5.25,5.25,0,0,1,38.4,5.24v5.58L37.32,9.74A4.69,4.69,0,0,0,34.9,8.46V5.24A1.74,1.74,0,0,0,33.16,3.5H5.24A1.74,1.74,0,0,0,3.5,5.24V20.3h0V42.72a1.74,1.74,0,0,0,1.74,1.74H33.16a1.74,1.74,0,0,0,1.74-1.74V39.5a4.7,4.7,0,0,0,2.42-1.29Z"/></g></g></svg>