<svg xmlns="http://www.w3.org/2000/svg" viewBox="0 0 39.5 32.05"><defs><style>.cls-1{fill:#ffffff;fill-rule:evenodd;}</style></defs><title>ProfileAsset 54</title><g id="Layer_2" data-name="Layer 2"><g id="Layer_1-2" data-name="Layer 1"><path class="cls-1" d="M0,6.88v22a3.61,3.61,0,0,0,3.2,3.19H37.08c1.33,0,2.42-1.62,2.42-3V6.78A2.54,2.54,0,0,0,37,4.17H26.33v3.1H36.4V29H3.1V7.27H13.17V4.17H3.2C1.79,4.17,0,5.44,0,6.88ZM21.69,19.47a.74.74,0,0,1,.58-.58H32.73c.66,0,.93,1.55-.2,1.55H22.27c-.51,0-.58-.61-.58-1Zm0-5a.75.75,0,0,1,.58-.58H32.73c.72,0,.81,1.55,0,1.55H22.46c-.82,0-.77-.65-.77-1Zm0,9.68a.75.75,0,0,1,.58-.58H32.73c.72,0,.81,1.55,0,1.55H22.46c-.82,0-.77-.64-.77-1ZM19.56,1.65h.38A1.25,1.25,0,0,1,21.11,3H18.4a1.24,1.24,0,0,1,1.16-1.36ZM16.75,3A2.82,2.82,0,0,1,17.59,1,3,3,0,0,1,22.75,3h.68a1.6,1.6,0,0,1,1.36,1.35V7.07a1.6,1.6,0,0,1-1.36,1.36H16.07a1.52,1.52,0,0,1-1.35-1.36V4.36A1.59,1.59,0,0,1,16.07,3ZM9.59,14.43C9.59,13,11.3,12,12.88,12a3.34,3.34,0,0,1,2.37.82c1.83,1,1.21,1.78,1.21,3.64.21.11.48.16.48.48,0,.65-.06,1.43-.65,1.77s-.26.12-.8,1.14c-.45.85-.39.33-.39,1.64a7.29,7.29,0,0,1,1.51.33c2,.57,2.85.27,2.85,2.77,0,1-8.18,1.72-11.8.57-.3-.1-1-.21-1-.57a3.13,3.13,0,0,1,.37-2,12.92,12.92,0,0,1,3.79-1.14,6.76,6.76,0,0,0,0-.78l-.68-1.63c-.28-.6-.43-.28-.7-.85-.73-1.48.19-1.78.22-1.87C9.68,15.61,9.59,15.23,9.59,14.43Z"/></g></g></svg>