<svg xmlns="http://www.w3.org/2000/svg" viewBox="0 0 41.64 48"><defs><style>.cls-1{fill-rule:evenodd;}</style></defs><title>copyAsset 5</title><g id="Layer_2" data-name="Layer 2"><g id="Layer_1-2" data-name="Layer 1"><path class="cls-1" d="M30.85,0H11A1.74,1.74,0,0,0,9.25,1.73V9.25H1.74A1.74,1.74,0,0,0,0,11V46.26A1.74,1.74,0,0,0,1.74,48h29.2a1.74,1.74,0,0,0,1.73-1.74v-7.8H39.9a1.74,1.74,0,0,0,1.74-1.74V10.84a1.73,1.73,0,0,0-.49-1.21L32.1.52A1.68,1.68,0,0,0,30.85,0ZM29.2,44.53H3.47V12.72H9.25v24A1.74,1.74,0,0,0,11,38.46H29.2v6.07ZM12.72,35V3.47h15V13.3A1.74,1.74,0,0,0,29.49,15h8.68V35ZM38.17,11.57H31.23v-7l6.94,7Z"/></g></g></svg>