<svg xmlns="http://www.w3.org/2000/svg" viewBox="0 0 48 48"><defs><style>.cls-1{fill-rule:evenodd;}</style></defs><title>Disconnect-linksAsset 8</title><g id="Layer_2" data-name="Layer 2"><g id="Layer_1-2" data-name="Layer 1"><path class="cls-1" d="M40.23,9.41,38.59,7.77a8.79,8.79,0,0,0-12.38,0l-5.61,5.6L16.91,9.69l5.61-5.61a14,14,0,0,1,19.76,0l1.64,1.64a14,14,0,0,1,0,19.76l-5.61,5.61L34.63,27.4l5.6-5.61a8.79,8.79,0,0,0,0-12.38ZM13.37,20.6,9.69,16.91,4.08,22.52h0a14,14,0,0,0,0,19.76h0l1.64,1.64a14,14,0,0,0,19.76,0l5.61-5.61L27.4,34.63l-5.61,5.6a8.79,8.79,0,0,1-12.38,0L7.77,38.59h0a8.79,8.79,0,0,1,0-12.38h0Z"/><path class="cls-1" d="M4.08,7.77A2.61,2.61,0,0,1,7.77,4.08L43.92,40.23a2.61,2.61,0,1,1-3.69,3.69Z"/></g></g></svg>